<?xml version="1.0" ?><svg height="56px" version="1.1" viewBox="0 0 56 56" width="56px" xmlns="http://www.w3.org/2000/svg" xmlns:xlink="http://www.w3.org/1999/xlink"><title/><desc/><g fill="none" fill-rule="evenodd" id="Page-1" stroke="none" stroke-width="1"><g fill="#000000" id="012---Record"><path d="M28,0 C12.536027,-5.10702591e-15 -5.10702591e-15,12.536027 -7.10542736e-15,28 C-9.1038288e-15,43.463973 12.536027,56 28,56 C43.463973,56 56,43.463973 56,28 C55.9829154,12.5431092 43.4568908,0.0170846292 28,0 Z M28,2 C29.3932152,1.99972451 30.7842529,2.11007126 32.16,2.33 C32.6838825,2.40385665 33.0595853,2.87299033 33.0171844,3.40035151 C32.9747835,3.92771269 32.5289529,4.33079343 32,4.32 C31.9464716,4.3216557 31.8929056,4.31830783 31.84,4.31 C30.5706965,4.10129589 29.2863449,3.99761125 28,4 C27.4477153,4 27,3.55228475 27,3 C27,2.44771525 27.4477153,2 28,2 Z M21.95,52.28 C21.8276007,52.7080785 21.4352272,53.0023586 20.99,53 C20.8951905,53.0007585 20.8008047,52.9872748 20.71,52.96 C10.7165517,50.051087 3.42674535,41.4544688 2.19,31.12 C2.16572105,30.5970494 2.54888268,30.1438845 3.06859265,30.0808893 C3.58830261,30.0178942 4.06863561,30.3663931 4.17,30.88 C5.31558183,40.419313 12.0454056,48.3534209 21.27,51.04 C21.5246078,51.1142606 21.7392877,51.2866223 21.8668124,51.5191674 C21.9943371,51.7517125 22.0242606,52.0253922 21.95,52.28 Z M31.12,53.81 C29.0477136,54.0633318 26.9522864,54.0633318 24.88,53.81 C24.3663931,53.7086356 24.0178942,53.2283026 24.0808893,52.7085926 C24.1438845,52.1888827 24.5970494,51.8057211 25.12,51.83 C27.033112,52.0599999 28.966888,52.0599999 30.88,51.83 C31.4029506,51.8057211 31.8561155,52.1888827 31.9191107,52.7085926 C31.9821058,53.2283026 31.6336069,53.7086356 31.12,53.81 Z M28,39 C21.9248678,39 17,34.0751322 17,28 C17,21.9248678 21.9248678,17 28,17 C34.0751322,17 39,21.9248678 39,28 C38.9961387,34.0735321 34.0735321,38.9961387 28,39 Z M46.97,20 C46.5853406,19.9989111 46.2354027,19.7772838 46.07,19.43 C42.7351766,12.4715981 35.7161774,8.0317994 28,8 C27.4477153,8 27,7.55228475 27,7 C27,6.44771525 27.4477153,6 28,6 C36.4891097,6.03015375 44.2127964,10.9137927 47.88,18.57 C48.1146165,19.0698225 47.8997404,19.6652085 47.4,19.9 C47.2667038,19.9671791 47.1192607,20.0014682 46.97,20 Z M49,29 C48.4477153,29 48,28.5522847 48,28 C48.0015373,26.3962185 47.8101629,24.7980737 47.43,23.24 C47.3212654,22.7139032 47.6476311,22.1958965 48.1691219,22.0668678 C48.6906127,21.9378392 49.2208709,22.2438977 49.37,22.76 C49.7903914,24.4748974 50.0019259,26.2343278 50,28 C50,28.5522847 49.5522847,29 49,29 Z M53,29 C52.4477153,29 52,28.5522847 52,28 C52.0272873,18.8325424 46.8046881,10.4585087 38.56,6.45 C38.2124296,6.30974685 37.972468,5.98691204 37.9383567,5.61366611 C37.9042455,5.24042018 38.0817124,4.87943624 38.3981016,4.67850332 C38.7144907,4.4775704 39.1166758,4.4704279 39.44,4.66 C48.3734118,8.99767131 54.0324478,18.0692304 54,28 C54,28.5522847 53.5522847,29 53,29 Z" fill-rule="nonzero" id="Shape"/><circle cx="28" cy="28" id="Oval" r="2"/><path d="M28,19 C23.0294373,19 19,23.0294373 19,28 C19,32.9705627 23.0294373,37 28,37 C32.9705627,37 37,32.9705627 37,28 C36.992291,23.0326339 32.9673661,19.007709 28,19 Z M28,32 C25.790861,32 24,30.209139 24,28 C24,25.790861 25.790861,24 28,24 C30.209139,24 32,25.790861 32,28 C32,30.209139 30.209139,32 28,32 Z" fill-rule="nonzero" id="Shape"/></g></g></svg>